# Blender v2.82 (sub 7) OBJ File: ''
# www.blender.org
mtllib hanger1.mtl
o Cube.001
v 1.000000 0.100280 -1.000000
v -1.000000 0.100280 -1.000000
v -1.000000 0.100280 1.000000
v 1.000000 0.100280 1.000000
v 1.000000 -0.099089 1.000000
v -1.000000 -0.099089 1.000000
v -1.000000 -0.099089 -1.000000
v 1.000000 -0.099089 -1.000000
vn 0.0000 1.0000 0.0000
vn 0.0000 0.0000 1.0000
vn -1.0000 0.0000 0.0000
vn 0.0000 -1.0000 -0.0000
vn 1.0000 0.0000 0.0000
vn 0.0000 0.0000 -1.0000
usemtl Material.001
s 1
f 2//1 4//1 1//1
f 4//2 6//2 5//2
f 3//3 7//3 6//3
f 8//4 6//4 7//4
f 1//5 5//5 8//5
f 2//6 8//6 7//6
f 2//1 3//1 4//1
f 4//2 3//2 6//2
f 3//3 2//3 7//3
f 8//4 5//4 6//4
f 1//5 4//5 5//5
f 2//6 1//6 8//6
